<?xml version="1.0" standalone="no"?>
<!DOCTYPE svg PUBLIC "-//W3C//DTD SVG 20010904//EN"
 "http://www.w3.org/TR/2001/REC-SVG-20010904/DTD/svg10.dtd">
<svg class="dark:fill-white" version="1.0" xmlns="http://www.w3.org/2000/svg"
 width="1058.000000pt" height="710.000000pt" viewBox="0 0 1058.000000 710.000000"
 preserveAspectRatio="xMidYMid meet">

<g transform="translate(0.000000,710.000000) scale(0.100000,-0.100000)"
fill="#000000" stroke="none">
<path d="M5398 6963 c-9 -10 -62 -85 -118 -168 -194 -282 -294 -402 -531 -630
-108 -105 -118 -112 -204 -144 -245 -91 -441 -205 -639 -370 -60 -50 -113 -91
-118 -91 -5 0 -28 13 -51 29 -112 77 -288 148 -450 182 -144 31 -392 32 -523
2 -265 -62 -494 -199 -671 -402 -142 -164 -225 -319 -280 -529 -31 -118 -42
-356 -24 -497 29 -215 161 -505 320 -705 200 -251 343 -367 796 -645 316 -194
478 -315 610 -458 74 -79 203 -262 255 -360 14 -26 27 -47 30 -47 3 0 29 37
57 83 141 224 245 544 272 837 6 63 11 124 11 135 0 14 25 -6 95 -75 52 -52
95 -100 95 -106 0 -6 -15 -44 -34 -85 -124 -269 -152 -630 -69 -864 44 -121
125 -242 201 -300 44 -34 178 -93 188 -83 3 3 0 35 -6 69 -12 65 -7 174 11
259 19 84 125 287 143 270 2 -3 19 -107 36 -230 59 -438 71 -513 91 -598 52
-227 151 -462 269 -641 79 -118 243 -289 357 -371 157 -112 365 -200 523 -219
108 -14 321 -14 430 0 391 48 762 361 883 744 113 358 6 738 -243 865 -154 78
-299 59 -416 -55 -88 -86 -99 -126 -89 -336 8 -187 1 -213 -74 -257 -40 -23
-57 -27 -126 -27 -102 1 -169 30 -244 106 -149 151 -190 343 -161 744 13 174
30 285 44 285 14 0 65 -76 105 -155 46 -92 61 -168 61 -301 0 -66 4 -125 9
-133 12 -19 46 -9 116 37 244 158 365 525 289 877 -20 90 -76 266 -114 352
l-29 68 77 73 c42 40 89 81 104 92 l26 20 7 -97 c15 -229 42 -365 106 -538 58
-156 204 -436 227 -435 4 0 30 40 59 88 117 199 278 382 453 516 109 84 201
144 420 276 485 291 674 453 862 739 115 175 191 351 234 548 24 106 24 357 0
465 -57 263 -173 476 -360 664 -177 176 -378 286 -625 340 -104 23 -362 23
-488 0 -167 -30 -323 -91 -458 -179 -59 -39 -72 -44 -85 -33 -8 8 -63 52 -122
99 -206 165 -376 266 -601 356 -91 37 -119 54 -190 116 -208 182 -451 469
-631 743 -37 56 -71 102 -75 102 -4 0 -15 -8 -23 -17z m73 -295 c149 -206 291
-378 433 -526 l100 -104 -24 -19 c-14 -10 -33 -19 -42 -19 -32 0 -295 293
-473 528 -21 28 -44 52 -50 52 -6 0 -37 -35 -67 -78 -31 -43 -83 -110 -116
-150 -77 -91 -332 -372 -339 -372 -3 0 -21 9 -40 21 l-34 21 53 58 c29 32 103
114 165 182 118 129 232 272 321 401 29 43 54 77 56 77 2 0 28 -33 57 -72z
m96 -512 c180 -184 204 -220 211 -320 6 -91 -13 -159 -79 -285 -48 -92 -49
-95 -49 -184 l0 -91 -68 -67 c-79 -77 -142 -114 -180 -104 -55 14 -180 114
-208 167 -9 17 -14 57 -14 108 0 77 -2 85 -40 149 -54 92 -82 172 -88 258 -7
104 2 134 61 206 61 74 289 317 298 317 3 0 74 -69 156 -154z m-787 -301 c0
-25 45 -210 59 -248 l11 -27 55 31 c91 51 118 16 40 -54 -26 -24 -45 -49 -45
-62 0 -49 170 -306 251 -379 64 -57 217 -165 245 -172 30 -8 105 35 225 128
106 82 192 190 270 341 l50 97 -32 28 c-18 15 -41 33 -51 40 -21 15 -24 50 -4
58 8 3 39 -9 69 -26 l55 -31 22 58 c23 60 60 221 60 261 0 48 55 11 66 -46 13
-67 -50 -272 -142 -455 -108 -217 -227 -350 -424 -479 -79 -51 -115 -68 -146
-68 -51 0 -252 137 -359 246 -160 162 -332 514 -352 721 -5 58 -4 63 22 89
l29 29 12 -30 c7 -17 13 -39 14 -50z m1653 -45 c63 -30 81 -65 72 -136 -12
-100 -87 -161 -198 -163 -59 -1 -113 20 -122 49 -7 21 11 80 24 80 3 0 28 -11
55 -25 27 -14 60 -25 72 -25 28 0 69 37 83 73 18 45 -2 70 -89 109 -79 36
-118 73 -106 103 5 13 17 11 83 -14 43 -15 100 -38 126 -51z m-1833 46 c0 -45
-19 -63 -97 -91 -43 -15 -81 -32 -85 -39 -13 -19 -9 -70 7 -93 32 -45 110 -50
144 -9 23 27 51 19 67 -19 21 -51 18 -65 -21 -81 -78 -32 -197 -7 -243 51 -28
35 -52 116 -45 147 8 34 42 67 98 95 101 52 175 68 175 39z m326 4 c24 -10 26
-14 21 -52 -5 -38 -27 -68 -49 -68 -21 0 -58 51 -58 79 0 45 34 61 86 41z
m1055 -14 c16 -34 3 -93 -21 -101 -10 -3 -32 1 -48 9 -46 24 -55 63 -22 96 29
29 77 27 91 -4z m-1757 -258 c25 -40 72 -106 104 -147 33 -40 87 -119 120
-175 85 -142 213 -317 302 -410 75 -79 178 -160 347 -275 110 -75 165 -132
223 -231 67 -116 89 -150 100 -150 5 0 34 49 65 109 66 129 112 178 272 290
163 113 218 159 324 268 139 142 171 183 332 435 31 47 82 118 115 158 53 62
112 163 112 190 0 42 143 -79 305 -258 61 -67 115 -124 121 -126 6 -2 66 29
133 69 213 128 347 168 576 169 145 0 240 -14 368 -56 75 -24 251 -107 243
-115 -3 -3 -40 8 -83 25 -116 46 -186 62 -304 69 -290 17 -564 -82 -839 -302
-168 -135 -410 -357 -410 -376 0 -5 19 -50 41 -101 79 -179 112 -306 125 -478
9 -130 -16 -300 -56 -384 -46 -94 -103 -191 -141 -238 -88 -111 -290 -301
-304 -287 -2 3 -18 55 -35 117 -16 62 -42 136 -56 165 -30 60 -111 177 -123
177 -4 0 -13 -36 -20 -79 -16 -110 -57 -235 -157 -483 -168 -419 -251 -692
-289 -948 -35 -238 -35 -596 0 -765 53 -255 262 -477 505 -536 93 -22 233 -16
317 14 96 34 176 88 230 156 57 73 77 142 70 236 l-5 71 28 -4 c40 -6 80 35
80 82 0 43 -29 73 -79 82 -32 6 -38 3 -68 -31 l-33 -38 0 34 c0 19 7 44 15 56
19 27 86 47 127 38 65 -15 154 -127 193 -245 31 -93 6 -281 -56 -419 -81 -179
-219 -321 -392 -401 -107 -49 -190 -69 -324 -77 -406 -23 -756 180 -989 573
-144 242 -193 413 -269 944 -74 515 -125 720 -292 1180 -93 257 -139 403 -149
480 -4 28 -10 53 -14 55 -13 8 -86 -79 -112 -135 -15 -30 -40 -99 -58 -152
-19 -60 -39 -103 -51 -112 -13 -9 -16 -16 -10 -21 6 -3 11 -10 11 -16 0 -17
-20 -9 -52 22 -20 19 -26 29 -15 25 10 -3 16 -2 13 3 -3 5 -18 11 -34 14 -33
7 -150 126 -209 213 -64 95 -130 223 -158 309 -77 230 -13 686 121 862 l25 33
-66 75 c-159 178 -527 456 -693 524 -271 112 -532 119 -777 20 -132 -54 -134
-54 -105 -29 59 52 230 120 375 150 135 27 229 32 335 20 196 -24 329 -73 494
-180 59 -39 109 -70 111 -70 2 0 34 37 71 83 73 88 309 327 323 327 5 0 29
-33 55 -72z m522 -232 c13 -21 14 -29 2 -53 -17 -35 -52 -53 -105 -53 -60 0
-94 40 -59 69 13 11 124 60 138 61 4 0 15 -11 24 -24z m1447 -12 c38 -15 71
-33 74 -41 9 -22 -36 -63 -69 -63 -69 0 -138 63 -123 111 8 26 37 24 118 -7z
m-2874 -152 c40 -29 71 -81 71 -119 0 -42 -46 -93 -83 -93 -40 0 -39 11 3 47
46 40 50 64 15 98 -28 29 -94 34 -118 10 -20 -20 -30 -69 -23 -110 10 -52 58
-83 159 -100 20 -3 37 -10 37 -15 0 -5 -17 -14 -37 -19 -146 -41 -273 49 -273
194 0 40 40 97 82 119 42 21 131 15 167 -12z m4379 8 c53 -33 74 -75 70 -146
-3 -48 -10 -69 -31 -97 -56 -74 -179 -101 -277 -61 l-45 19 68 7 c85 8 147 42
172 94 21 44 13 97 -18 119 -28 20 -91 19 -111 -1 -25 -24 -20 -71 10 -99 47
-43 4 -77 -46 -37 -18 14 -24 32 -28 74 -4 50 -2 58 24 87 52 58 152 77 212
41z m-1633 -67 c30 -15 55 -32 55 -37 0 -20 -54 -66 -78 -66 -33 0 -92 46 -92
71 0 32 19 59 40 59 11 0 44 -12 75 -27z m-1187 -6 c6 -32 -18 -74 -53 -93
-34 -18 -35 -18 -62 2 -17 13 -28 31 -28 45 0 50 134 93 143 46z m3492 -57
c18 -12 2 -12 -25 0 -13 6 -15 9 -5 9 8 0 22 -4 30 -9z m-3350 -147 c0 -33
-26 -81 -47 -85 -21 -5 -64 14 -83 37 -11 13 -10 19 6 37 11 11 37 29 59 39
45 20 65 12 65 -28z m-2115 13 c28 -13 83 -49 124 -81 41 -31 95 -67 120 -80
58 -29 173 -55 248 -56 l58 -1 -40 -18 c-142 -67 -262 -44 -462 88 -104 68
-132 77 -209 67 -51 -6 -67 -25 -22 -25 30 0 88 -63 88 -95 0 -57 -64 -122
-99 -100 -19 11 -12 35 14 47 26 12 41 47 32 73 -10 25 -57 30 -96 9 -53 -29
-76 -83 -76 -179 0 -69 4 -89 32 -147 18 -38 35 -68 39 -68 3 0 40 31 81 70
156 146 256 167 502 106 79 -20 156 -36 170 -37 25 -1 25 -1 -6 -15 -19 -8
-87 -15 -180 -19 -194 -7 -261 -20 -321 -59 -137 -87 -153 -99 -142 -110 16
-15 132 -11 215 9 86 20 349 32 359 17 5 -9 -88 -52 -113 -52 -5 0 -64 -23
-132 -52 -109 -45 -135 -52 -210 -56 -72 -4 -94 -1 -134 17 -64 28 -81 27 -93
-8 -13 -37 -84 -106 -137 -134 -28 -14 -60 -21 -105 -21 -115 -2 -215 66 -272
183 -33 67 -33 197 0 261 31 58 57 86 111 118 43 25 95 31 190 20 21 -3 25 4
40 57 26 89 57 144 122 206 91 90 202 114 304 65z m3000 4 c18 -11 36 -27 39
-36 8 -22 -10 -51 -43 -68 -24 -13 -31 -13 -48 -1 -28 19 -56 81 -48 105 8 27
57 26 100 0z m2240 -1 c53 -16 78 -31 114 -67 55 -55 96 -134 111 -211 6 -30
11 -56 13 -57 1 -1 23 2 49 7 63 14 142 -3 202 -42 34 -23 53 -46 77 -95 65
-132 36 -270 -78 -374 -62 -57 -134 -85 -198 -78 -91 11 -200 87 -231 161
l-18 44 -56 -25 c-37 -16 -80 -26 -135 -29 -79 -5 -83 -4 -220 50 -77 30 -171
65 -210 77 -38 12 -74 26 -78 30 -18 16 316 4 388 -14 70 -18 199 -25 211 -13
12 11 -25 44 -100 89 -124 75 -124 75 -372 82 -120 4 -161 9 -200 25 l-49 20
66 0 c40 1 113 13 181 31 167 43 211 46 282 21 74 -26 142 -66 229 -137 37
-30 69 -54 71 -54 11 0 48 78 63 130 38 138 -35 292 -124 263 -14 -5 -32 -18
-40 -30 -12 -18 -11 -24 12 -51 39 -46 29 -86 -15 -62 -24 13 -60 67 -60 90 0
31 53 99 82 105 34 8 36 20 6 29 -64 17 -115 -1 -240 -81 -132 -85 -171 -98
-298 -98 -76 0 -119 5 -158 19 -29 10 -51 20 -49 22 2 2 51 9 108 14 165 16
208 34 399 169 96 67 151 76 265 40z m509 -65 c3 -8 2 -12 -4 -9 -6 3 -10 10
-10 16 0 14 7 11 14 -7z m-3460 -69 c47 -31 21 -95 -39 -95 -52 0 -88 55 -69
105 9 22 68 16 108 -10z m542 0 c20 -31 9 -65 -31 -91 -21 -14 -30 -14 -55 -4
-30 13 -48 49 -35 70 11 17 68 50 87 50 10 0 25 -11 34 -25z m-3574 -47 c-7
-7 -12 -8 -12 -2 0 14 12 26 19 19 2 -3 -1 -11 -7 -17z m6529 5 c13 -16 12
-17 -3 -4 -10 7 -18 15 -18 17 0 8 8 3 21 -13z m-3350 -49 c55 -57 66 -60 107
-27 54 44 82 57 94 45 34 -34 -104 -209 -146 -185 -44 26 -116 138 -116 183 0
30 22 24 61 -16z m-2001 -502 c0 -4 -15 -16 -32 -27 -55 -32 -119 -97 -143
-145 -12 -25 -41 -105 -64 -179 -44 -143 -62 -179 -110 -225 -17 -16 -28 -32
-26 -37 9 -14 100 2 151 27 29 13 70 44 92 68 39 42 100 151 117 206 14 46 75
161 106 200 28 34 96 90 110 90 3 0 -10 -30 -28 -67 -18 -38 -52 -129 -74
-203 -49 -162 -77 -218 -147 -289 -29 -29 -51 -55 -49 -58 12 -11 181 89 255
151 24 20 46 36 49 36 12 0 -38 -68 -84 -115 -61 -61 -191 -130 -272 -145 -65
-12 -232 -13 -282 -1 -29 7 -47 3 -90 -15 -100 -43 -191 -28 -271 44 -146 131
-103 342 87 428 32 14 96 28 180 39 173 21 200 30 260 88 80 78 112 99 178
118 71 20 87 22 87 11z m4285 -32 c33 -15 91 -55 128 -88 38 -34 83 -66 100
-71 18 -6 95 -17 171 -26 197 -21 285 -66 338 -169 48 -94 32 -194 -48 -285
-70 -80 -161 -101 -269 -60 -45 17 -66 19 -108 13 -78 -11 -223 -6 -289 11
-120 30 -271 127 -328 210 -45 66 -36 72 24 18 59 -52 206 -147 246 -158 20
-6 12 6 -38 58 -66 70 -106 143 -136 252 -42 151 -70 223 -98 258 -16 21 -28
40 -26 43 9 8 99 -58 132 -98 19 -22 46 -68 60 -101 14 -34 39 -97 57 -140 39
-98 90 -163 162 -206 55 -32 172 -69 184 -58 3 4 -12 28 -34 54 -52 62 -75
108 -108 218 -53 177 -105 262 -208 336 l-40 29 34 -6 c19 -3 61 -19 94 -34z
m-3862 -642 c40 -47 5 -138 -54 -138 -56 0 -95 70 -68 119 29 52 86 61 122 19z
m3396 18 c28 -15 51 -53 51 -84 0 -26 -28 -62 -57 -73 -31 -12 -84 17 -101 56
-15 32 5 72 47 98 32 20 26 20 60 3z m716 -291 c-73 -63 -120 -74 -79 -18 17
22 59 41 114 51 3 1 -13 -14 -35 -33z m-4810 -55 c3 -5 2 -10 -4 -10 -5 0 -13
5 -16 10 -3 6 -2 10 4 10 5 0 13 -4 16 -10z m4660 -30 c3 -5 2 -10 -4 -10 -5
0 -13 5 -16 10 -3 6 -2 10 4 10 5 0 13 -4 16 -10z m-608 -132 c-3 -8 -6 -5 -6
6 -1 11 2 17 5 13 3 -3 4 -12 1 -19z m157 7 c-4 -8 -8 -15 -10 -15 -2 0 -4 7
-4 15 0 8 4 15 10 15 5 0 7 -7 4 -15z m-140 -60 c5 -22 4 -26 -4 -15 -5 8 -10
24 -10 34 0 26 6 18 14 -19z m285 11 c9 -11 6 -20 -13 -42 -14 -16 -26 -24
-26 -17 0 6 5 15 10 18 14 9 12 42 -2 48 -8 4 -7 6 3 6 9 1 22 -5 28 -13z
m-1139 -63 c0 -41 13 -58 23 -30 2 6 14 -8 26 -31 22 -43 23 -74 1 -33 -11 21
-40 29 -40 11 0 -5 7 -10 15 -10 14 0 19 -11 16 -36 -1 -7 8 -14 19 -17 23 -6
40 -45 39 -90 0 -27 -2 -29 -9 -12 -7 15 -9 16 -9 4 -1 -9 10 -41 23 -70 41
-95 51 -155 50 -309 -1 -129 -15 -257 -31 -284 -4 -5 -17 37 -29 94 -31 135
-100 276 -193 394 -39 48 -71 91 -71 95 0 4 18 14 41 21 l40 14 54 -60 c29
-32 56 -56 61 -51 14 13 -24 110 -76 192 -27 43 -50 84 -50 90 0 5 13 35 29
66 15 30 33 71 40 90 9 27 14 31 21 19 5 -8 10 -34 10 -57z m-2645 -33 c3 -5
4 -10 1 -10 -2 0 -11 -2 -19 -5 -8 -4 -14 0 -14 10 0 17 22 21 32 5z m3685
-10 c0 -5 -4 -10 -10 -10 -5 0 -10 5 -10 10 0 6 5 10 10 10 6 0 10 -4 10 -10z
m-2684 -65 c4 -15 -4 -38 -22 -66 -65 -104 -120 -239 -96 -239 5 0 31 26 58
58 48 57 73 82 83 82 7 0 31 -50 31 -64 0 -6 -26 -44 -58 -86 -107 -137 -165
-267 -193 -428 -15 -85 -21 -80 -45 38 -24 118 -15 425 13 445 15 11 15 17 5
40 -14 31 -9 43 11 26 12 -9 19 0 38 51 31 85 45 105 78 111 16 3 31 13 35 22
5 13 2 14 -15 4 -18 -9 -20 -8 -17 8 2 10 13 22 26 28 12 5 22 17 22 25 1 21
38 -25 46 -55z m-885 -162 c13 -16 12 -17 -3 -4 -17 13 -22 21 -14 21 2 0 10
-8 17 -17z m3329 -14 c-7 -11 -14 -18 -17 -15 -3 3 0 12 7 21 18 21 23 19 10
-6z"/>
<path d="M5271 6043 c-142 -143 -158 -171 -142 -257 5 -26 14 -53 19 -58 16
-16 66 26 172 146 l92 104 75 -86 c111 -129 170 -181 191 -168 18 11 23 75 11
143 l-11 68 -121 118 c-69 67 -129 117 -140 117 -11 0 -71 -52 -146 -127z"/>
<path d="M5296 5725 c-99 -106 -106 -116 -95 -137 17 -34 40 -58 56 -58 8 0
45 30 84 66 79 74 64 75 145 -3 47 -45 79 -64 95 -58 15 6 59 69 59 84 0 10
-218 221 -229 221 -4 0 -56 -52 -115 -115z"/>
<path d="M5338 5473 c-69 -70 -92 -110 -81 -140 21 -59 107 -133 153 -133 34
0 111 49 138 88 45 62 17 134 -81 213 -27 21 -53 39 -56 39 -4 0 -37 -30 -73
-67z"/>
<path d="M4112 5448 c-30 -30 0 -75 43 -64 41 11 29 76 -15 76 -9 0 -21 -5
-28 -12z"/>
<path d="M6656 5444 c-22 -22 -20 -51 4 -59 43 -14 77 16 65 56 -8 23 -48 25
-69 3z"/>
<path d="M6751 5264 c-39 -42 -81 -89 -92 -105 l-20 -29 33 -30 c18 -16 35
-30 38 -30 15 0 180 182 180 198 0 17 -48 72 -62 72 -3 0 -38 -34 -77 -76z"/>
<path d="M3965 5306 c-21 -21 -24 -30 -16 -45 16 -30 162 -181 175 -181 6 0
24 11 41 24 l29 24 -29 43 c-43 62 -126 147 -152 154 -16 4 -30 -1 -48 -19z"/>
<path d="M4231 5291 c-17 -11 -7 -59 15 -68 18 -7 54 24 54 47 0 27 -41 39
-69 21z"/>
<path d="M6536 5279 c-20 -29 -10 -49 24 -49 44 0 79 51 44 64 -29 11 -53 6
-68 -15z"/>
<path d="M4320 5091 c-17 -32 -11 -60 15 -77 21 -14 31 -15 50 -6 24 11 30 27
25 62 -4 39 -72 54 -90 21z"/>
<path d="M6432 5098 c-18 -18 -14 -63 6 -81 41 -38 92 -12 92 45 0 32 -18 48
-55 48 -17 0 -36 -5 -43 -12z"/>
<path d="M4506 4888 c-22 -31 -20 -65 4 -73 46 -15 86 41 54 76 -22 25 -39 24
-58 -3z"/>
<path d="M6256 4879 c-13 -20 -14 -26 -2 -44 16 -25 58 -31 75 -11 7 8 11 27
9 43 -2 23 -8 29 -35 31 -23 2 -35 -3 -47 -19z"/>
<path d="M6110 4743 c-20 -25 -16 -52 11 -68 17 -11 58 4 69 24 14 27 3 48
-31 60 -25 9 -31 7 -49 -16z"/>
<path d="M4643 4734 c-22 -35 -7 -59 37 -59 44 0 59 24 37 59 -10 14 -26 26
-37 26 -11 0 -27 -12 -37 -26z"/>
<path d="M4797 4602 c-31 -34 -14 -72 30 -72 33 0 49 35 28 66 -19 29 -36 30
-58 6z"/>
<path d="M5978 4609 c-22 -12 -23 -52 -4 -68 8 -7 27 -11 43 -9 38 4 45 49 11
72 -26 19 -27 19 -50 5z"/>
<path d="M4163 4543 c-21 -4 -19 -7 19 -37 49 -36 61 -57 83 -139 21 -78 76
-132 192 -190 48 -24 99 -48 112 -52 l24 -7 -7 68 c-10 98 -43 212 -74 259
-32 46 -79 81 -131 95 -35 10 -174 12 -218 3z"/>
<path d="M6444 4540 c-58 -13 -117 -68 -157 -146 -18 -35 -47 -179 -47 -236 0
-47 2 -47 125 15 138 68 166 99 216 232 14 39 33 66 64 92 24 20 42 40 39 45
-6 10 -197 9 -240 -2z"/>
<path d="M4954 4505 c-10 -25 2 -41 60 -80 105 -70 184 -190 173 -262 -20
-120 -166 -195 -246 -127 -34 28 -41 67 -17 99 13 18 14 17 30 -14 25 -47 59
-60 93 -35 42 31 64 67 70 112 5 35 1 49 -23 83 -15 22 -40 47 -55 55 -41 21
-131 18 -160 -5 l-22 -18 44 -5 c69 -8 137 -42 145 -73 8 -34 5 -36 -38 -23
-79 24 -149 -19 -163 -101 -9 -55 1 -94 33 -126 93 -93 248 -73 341 45 60 75
68 188 22 279 -59 115 -265 255 -287 196z"/>
<path d="M5772 4483 c-133 -81 -201 -176 -210 -295 -6 -80 17 -136 81 -198 45
-45 87 -60 165 -60 63 0 98 16 140 65 38 42 46 72 39 128 -10 74 -97 119 -160
83 -16 -9 -33 -16 -38 -16 -19 0 -8 32 24 65 26 29 43 37 95 46 66 12 77 24
36 39 -80 31 -179 -3 -213 -73 -26 -53 -26 -80 -2 -133 32 -70 96 -77 142 -14
l23 30 13 -22 c19 -36 15 -57 -17 -90 -29 -28 -35 -30 -86 -26 -94 8 -146 63
-152 161 -6 104 39 174 158 245 56 34 65 43 65 68 0 42 -29 42 -103 -3z"/>
<path d="M4046 4179 c-28 -40 21 -83 61 -54 14 11 16 18 8 42 -13 36 -47 42
-69 12z"/>
<path d="M6715 4180 c-12 -19 4 -58 26 -65 27 -9 51 13 47 44 -2 21 -9 27 -35
29 -17 2 -34 -2 -38 -8z"/>
<path d="M4148 4089 c-28 -16 -23 -57 8 -71 50 -23 87 34 42 66 -26 19 -27 19
-50 5z"/>
<path d="M5388 4073 c-47 -80 -147 -168 -308 -275 -47 -31 -96 -68 -109 -82
l-24 -26 34 0 c19 0 81 20 137 45 l104 45 98 -103 98 -102 32 30 c17 17 56 60
87 98 30 37 62 67 70 67 9 0 51 -16 94 -36 44 -19 95 -38 114 -41 78 -13 30
36 -176 180 -61 43 -153 133 -201 198 -27 36 -30 36 -50 2z m66 -193 c20 -22
36 -51 36 -64 0 -27 -37 -56 -73 -56 -30 0 -77 36 -77 59 0 18 59 101 71 101
4 0 23 -18 43 -40z"/>
<path d="M6632 4088 c-27 -27 -7 -78 31 -78 20 0 46 26 47 47 1 33 -54 55 -78
31z"/>
<path d="M4250 3981 c-19 -37 15 -70 59 -56 28 9 33 33 11 55 -25 25 -56 26
-70 1z"/>
<path d="M6507 3993 c-11 -11 -8 -58 5 -71 30 -30 83 -1 70 38 -9 31 -57 52
-75 33z"/>
<path d="M4391 3914 c-38 -27 -21 -74 26 -74 27 0 38 20 29 54 -8 31 -28 38
-55 20z"/>
<path d="M6383 3914 c-23 -10 -15 -54 11 -66 38 -17 58 -4 54 34 -2 27 -8 33
-28 35 -14 1 -31 -1 -37 -3z"/>
<path d="M5144 3652 c-32 -22 -66 -48 -75 -58 -53 -61 -21 -137 40 -98 54 35
141 117 141 133 0 19 -27 61 -39 61 -4 0 -34 -17 -67 -38z"/>
<path d="M5590 3659 l-22 -30 23 -26 c33 -34 151 -123 166 -123 6 0 16 14 22
31 16 47 -9 91 -81 139 -33 22 -66 40 -73 40 -8 0 -23 -14 -35 -31z"/>
<path d="M5314 3469 c-106 -85 -214 -188 -214 -206 0 -23 60 -14 119 17 31 17
83 50 116 75 33 25 65 45 73 45 7 0 52 -27 101 -59 96 -65 150 -91 188 -91 20
0 23 4 18 23 -3 12 -27 42 -53 66 -62 57 -241 201 -251 201 -4 0 -48 -32 -97
-71z"/>
<path d="M5364 3269 c-52 -33 -224 -201 -224 -218 0 -18 58 -12 98 8 20 11 64
38 97 60 33 23 67 41 76 41 9 0 41 -18 72 -41 67 -47 162 -93 177 -84 23 14 7
50 -47 107 -52 53 -179 158 -194 158 -3 0 -27 -14 -55 -31z"/>
<path d="M5313 2981 c-109 -85 -148 -125 -140 -145 13 -34 89 -9 181 57 l50
36 50 -36 c96 -69 186 -92 186 -47 0 28 -200 204 -231 204 -4 0 -47 -31 -96
-69z"/>
<path d="M5355 2755 c-71 -35 -150 -107 -142 -128 12 -32 123 -13 157 27 18
22 32 20 100 -14 61 -31 94 -37 119 -21 26 17 -3 55 -76 103 -91 61 -100 63
-158 33z"/>
<path d="M5347 2517 c-69 -39 -119 -84 -115 -105 2 -8 16 -20 31 -25 22 -7 39
-4 83 18 l55 27 57 -24 c44 -19 64 -23 88 -16 42 11 50 35 22 65 -28 29 -130
93 -149 93 -8 0 -40 -15 -72 -33z"/>
<path d="M5366 2291 c-67 -35 -107 -71 -104 -94 5 -35 49 -44 108 -23 45 16
53 17 68 3 42 -36 59 -38 91 -11 44 37 40 58 -21 98 -70 45 -96 50 -142 27z"/>
<path d="M5361 2006 c-30 -32 -22 -70 19 -91 27 -14 33 -14 59 -1 45 24 54 63
21 96 -28 28 -71 26 -99 -4z"/>
<path d="M5365 1755 c-16 -15 -25 -36 -25 -55 0 -25 6 -33 31 -44 21 -9 44
-11 67 -5 60 13 69 54 23 100 -36 35 -64 37 -96 4z"/>
<path d="M5412 1487 c-55 -58 4 -138 79 -107 50 21 52 96 4 118 -38 18 -59 15
-83 -11z"/>
<path d="M5490 1237 c-38 -19 -39 -68 -3 -96 44 -36 103 -12 103 40 0 22 -8
34 -32 49 -39 23 -36 23 -68 7z"/>
<path d="M5616 984 c-23 -22 -30 -62 -16 -79 15 -19 79 -19 103 -1 23 18 21
51 -5 76 -26 24 -61 26 -82 4z"/>
<path d="M5855 790 c-23 -9 -39 -26 -48 -52 -11 -30 31 -59 77 -56 33 2 41 7
46 28 10 41 0 68 -29 78 -14 5 -35 6 -46 2z"/>
<path d="M6628 684 c-39 -21 -48 -62 -18 -86 30 -24 86 -24 100 1 33 64 -20
119 -82 85z"/>
<path d="M6084 662 c-6 -4 -14 -17 -18 -29 -9 -29 32 -73 67 -73 29 0 57 29
57 58 0 38 -71 67 -106 44z"/>
<path d="M6357 630 c-55 -44 -31 -100 42 -100 61 0 93 57 53 93 -28 25 -68 28
-95 7z"/>
<path d="M2314 4519 c-60 -17 -112 -93 -122 -174 -3 -31 3 -56 22 -97 33 -69
65 -102 122 -124 88 -33 179 0 215 80 19 42 25 111 11 120 -5 3 -31 -11 -58
-30 -44 -32 -54 -35 -94 -30 -66 9 -94 62 -51 100 17 16 20 15 49 -9 37 -31
47 -31 66 -3 59 84 -51 199 -160 167z"/>
<path d="M8399 4481 c-30 -30 -39 -46 -39 -73 0 -57 44 -84 86 -53 29 22 53
18 60 -11 22 -85 -82 -112 -172 -44 -21 16 -42 30 -46 30 -5 0 -8 -24 -8 -53
0 -92 72 -167 162 -167 60 0 141 50 185 114 26 38 33 58 33 97 0 117 -73 199
-176 199 -41 0 -51 -5 -85 -39z"/>
<path d="M2684 3886 c-61 -19 -102 -54 -131 -113 -50 -104 -13 -222 82 -258
38 -15 52 -16 85 -6 79 23 114 108 69 165 -30 38 -57 34 -65 -9 -8 -46 -27
-61 -59 -47 -38 17 -35 72 6 106 46 39 96 36 143 -9 20 -19 43 -49 50 -66 l14
-33 15 30 c14 27 77 228 77 246 0 13 -241 8 -286 -6z"/>
<path d="M7883 3894 c-8 -4 -6 -21 7 -62 10 -31 29 -90 41 -130 12 -40 26 -75
30 -78 5 -2 17 12 28 33 28 55 63 84 110 90 52 7 97 -12 109 -45 10 -30 -2
-68 -25 -76 -19 -8 -53 11 -53 28 0 21 -27 38 -49 31 -24 -7 -43 -58 -35 -94
9 -35 32 -61 72 -78 39 -16 74 -9 125 25 54 36 77 79 77 144 0 105 -68 189
-169 208 -54 10 -245 13 -268 4z"/>
<path d="M4506 2774 c-9 -24 -7 -28 9 -14 17 14 20 30 6 30 -5 0 -12 -7 -15
-16z"/>
<path d="M5032 6798 c-20 -20 -15 -66 8 -73 34 -11 78 26 62 52 -6 9 -45 33
-54 33 -2 0 -9 -5 -16 -12z"/>
<path d="M5751 6794 c-38 -27 -21 -74 26 -74 27 0 38 20 29 54 -8 31 -28 38
-55 20z"/>
<path d="M4801 6604 c-27 -34 -26 -50 4 -79 61 -62 150 11 99 83 -22 32 -76
30 -103 -4z"/>
<path d="M5936 6614 c-19 -18 -20 -44 -5 -78 14 -30 32 -38 65 -30 24 6 54 49
54 78 0 25 -30 46 -65 46 -18 0 -41 -7 -49 -16z"/>
<path d="M4486 6408 c-9 -12 -16 -33 -16 -46 0 -28 42 -72 68 -72 34 0 65 34
65 70 0 62 -84 96 -117 48z"/>
<path d="M6246 6408 c-37 -52 -8 -118 51 -118 53 0 85 86 47 124 -24 24 -80
20 -98 -6z"/>
<path d="M4714 6386 c-9 -22 15 -48 40 -44 15 2 21 10 21 28 0 20 -6 26 -28
28 -18 2 -29 -2 -33 -12z"/>
<path d="M6050 6386 c0 -24 12 -46 25 -46 18 0 48 37 40 49 -10 17 -65 14 -65
-3z"/>
<path d="M7443 6348 c-26 -12 -35 -42 -23 -73 15 -39 42 -47 78 -25 68 42 17
132 -55 98z"/>
<path d="M2806 6334 c-18 -18 -20 -47 -6 -75 22 -39 110 -14 110 32 0 49 -70
78 -104 43z"/>
<path d="M3318 6339 c-20 -11 -23 -50 -8 -80 13 -23 62 -26 84 -3 19 18 21 65
4 82 -15 15 -57 15 -80 1z"/>
<path d="M3846 6315 c-9 -45 6 -72 44 -77 39 -6 58 8 66 48 8 41 -16 64 -66
64 -35 0 -38 -2 -44 -35z"/>
<path d="M6886 6334 c-35 -35 -6 -94 47 -94 51 0 76 59 39 93 -23 21 -66 22
-86 1z"/>
<path d="M7946 6331 c-24 -27 -17 -72 13 -88 32 -15 78 7 87 43 13 53 -62 87
-100 45z"/>
<path d="M4236 6264 c-21 -21 -20 -57 2 -77 37 -34 72 -14 72 40 0 47 -43 69
-74 37z"/>
<path d="M6520 6261 c-15 -29 -12 -56 8 -74 26 -24 47 -21 71 9 19 25 19 45
-2 72 -15 19 -65 15 -77 -7z"/>
<path d="M4398 6125 c-14 -31 0 -50 30 -40 22 6 37 38 27 55 -12 19 -45 10
-57 -15z"/>
<path d="M6374 6135 c-10 -25 4 -45 31 -45 30 0 43 24 25 45 -16 19 -49 19
-56 0z"/>
<path d="M3143 6130 c-39 -16 -38 -86 1 -112 21 -15 55 -8 70 14 22 31 20 64
-4 88 -22 22 -33 23 -67 10z"/>
<path d="M7624 6114 c-20 -19 -24 -31 -19 -52 13 -54 66 -69 103 -29 29 31 28
53 -4 82 -34 31 -49 31 -80 -1z"/>
<path d="M7224 6118 c-51 -24 -56 -98 -8 -120 50 -23 105 33 81 82 -18 34 -48
50 -73 38z"/>
<path d="M4031 6096 c-28 -30 -23 -68 13 -91 61 -40 133 58 74 99 -32 23 -61
20 -87 -8z"/>
<path d="M6720 6098 c-44 -47 -6 -121 52 -99 51 19 66 64 33 97 -30 30 -58 31
-85 2z"/>
<path d="M3554 6103 c-25 -17 -35 -52 -23 -75 16 -30 28 -38 60 -38 38 0 61
30 57 77 -3 37 -4 38 -43 41 -22 1 -45 -1 -51 -5z"/>
<path d="M2825 6036 c-17 -12 -18 -18 -7 -40 12 -28 31 -33 50 -14 17 17 15
55 -4 62 -20 8 -17 8 -39 -8z"/>
<path d="M7950 6023 c0 -30 23 -55 43 -47 12 4 17 15 15 33 -2 20 -9 27 -30
29 -22 3 -28 -1 -28 -15z"/>
<path d="M3766 5919 c-32 -25 -33 -53 -2 -84 18 -18 31 -23 53 -19 30 5 62 39
63 66 0 20 -46 58 -70 58 -10 0 -29 -9 -44 -21z"/>
<path d="M6994 5933 c-43 -31 -35 -92 15 -113 26 -10 35 -10 56 4 28 19 35 75
12 95 -19 15 -69 23 -83 14z"/>
<path d="M3046 2600 c-61 -18 -98 -83 -82 -144 10 -39 54 -85 93 -95 29 -8 43
-6 74 9 21 11 45 30 53 42 20 28 21 100 1 137 -20 40 -89 65 -139 51z"/>
<path d="M7622 2584 c-55 -28 -72 -67 -59 -136 20 -99 173 -107 214 -11 41 99
-60 195 -155 147z"/>
<path d="M2426 2553 c-49 -7 -92 -16 -95 -18 -11 -11 19 -186 39 -232 28 -63
91 -127 153 -153 55 -24 171 -29 262 -11 82 16 199 43 208 48 4 3 -12 18 -37
33 -49 32 -97 90 -168 204 -27 44 -61 84 -80 96 -67 41 -155 51 -282 33z"/>
<path d="M8086 2535 c-52 -18 -132 -98 -162 -161 -27 -56 -113 -135 -170 -156
-18 -6 -34 -15 -34 -18 0 -12 45 -28 156 -56 142 -36 249 -38 317 -7 96 44
154 112 187 221 36 117 26 140 -80 173 -72 22 -159 24 -214 4z"/>
<path d="M3164 2118 c-69 -45 -143 -102 -144 -109 0 -4 33 -23 73 -43 78 -40
160 -58 212 -46 40 9 217 129 212 144 -2 6 -34 26 -70 45 -57 29 -80 35 -150
39 -79 3 -84 2 -133 -30z"/>
<path d="M7454 2086 c-23 -7 -68 -28 -100 -46 l-58 -34 60 -54 c84 -77 130
-96 216 -88 77 7 177 41 185 63 7 18 -107 136 -153 158 -38 18 -94 18 -150 1z"/>
<path d="M2080 1961 c-59 -16 -43 -111 18 -111 38 0 74 35 70 68 -4 30 -49 52
-88 43z"/>
<path d="M8476 1935 c-23 -34 -20 -60 9 -79 69 -45 142 27 85 84 -28 28 -74
26 -94 -5z"/>
<path d="M2500 1884 c-84 -22 -154 -60 -197 -107 -21 -23 -71 -95 -111 -159
-40 -65 -77 -120 -83 -123 -19 -12 -7 -25 54 -59 91 -51 166 -69 256 -64 113
7 171 45 279 183 30 39 71 85 91 103 52 49 147 110 181 117 58 13 34 26 -120
69 -73 20 -253 56 -277 55 -10 0 -43 -7 -73 -15z"/>
<path d="M3800 1890 c-45 -9 -52 -12 -263 -110 -139 -63 -207 -88 -320 -116
-167 -42 -222 -69 -288 -143 -98 -110 -123 -214 -95 -401 32 -217 38 -283 31
-336 -11 -93 -74 -159 -150 -159 -55 0 -99 30 -103 71 -13 156 -23 174 -98
174 -171 0 -197 -228 -45 -381 71 -70 144 -101 246 -101 85 -1 143 14 212 53
64 37 106 85 183 210 85 138 148 187 205 161 44 -20 57 -54 56 -147 -2 -139
-37 -279 -101 -404 -12 -24 -19 -46 -15 -49 3 -3 61 -10 130 -15 120 -10 588
2 600 15 3 3 -7 39 -24 79 -37 95 -81 239 -81 267 0 20 5 22 48 22 47 0 173
-16 203 -26 47 -14 49 -132 4 -263 -14 -41 -22 -77 -19 -80 18 -18 634 -21
634 -4 0 3 -11 46 -25 97 -43 158 -71 406 -46 406 5 0 22 -34 39 -76 67 -163
216 -340 336 -399 39 -19 78 -29 125 -33 86 -6 193 5 217 22 15 11 8 15 -57
30 -109 24 -174 61 -260 147 -95 93 -150 201 -204 394 -70 250 -115 381 -152
443 -42 71 -108 151 -170 206 -81 72 -270 173 -289 153 -3 -3 0 -67 6 -143 24
-267 -19 -436 -145 -581 -47 -53 -138 -116 -187 -128 -42 -11 -34 8 20 51 134
107 215 242 233 389 13 105 7 356 -11 435 -29 129 -87 213 -170 249 -54 23
-152 33 -210 21z m118 -165 c52 -22 78 -50 101 -109 30 -78 41 -147 41 -264 0
-214 -68 -357 -208 -440 -44 -25 -54 -27 -167 -27 -114 0 -123 2 -188 32 -81
39 -169 119 -205 188 -23 43 -27 62 -27 140 0 75 4 98 24 138 78 160 378 349
564 356 15 1 44 -6 65 -14z m537 -350 c24 -24 35 -75 15 -75 -18 0 -80 62 -80
81 0 27 36 24 65 -6z m-4 -105 c21 -12 51 -64 42 -74 -12 -12 -57 -6 -75 11
-10 9 -18 26 -18 38 0 36 16 43 51 25z m-1301 -15 c19 -22 3 -52 -30 -57 -47
-7 -66 25 -34 56 19 20 48 20 64 1z m1408 -23 c3 -16 -2 -22 -17 -22 -24 0
-35 15 -27 36 9 23 40 13 44 -14z m-116 -89 c27 -31 37 -58 28 -73 -8 -12 -14
-12 -44 3 -31 14 -36 21 -36 52 0 27 4 35 18 35 11 0 26 -8 34 -17z m118 -33
c0 -11 -9 -24 -20 -30 -17 -9 -22 -7 -30 15 -13 34 -13 42 3 48 20 7 47 -12
47 -33z m-139 -86 c26 -32 -34 -101 -65 -75 -16 14 -21 47 -10 75 8 21 58 21
75 0z m97 -16 c22 -22 14 -48 -13 -48 -30 0 -43 24 -25 45 15 18 22 19 38 3z
m-164 -100 c23 -33 21 -68 -5 -68 -31 0 -59 19 -59 40 0 52 36 68 64 28z m114
-20 c3 -24 0 -28 -23 -28 -27 0 -41 20 -31 46 10 27 51 13 54 -18z m-178 -79
c0 -20 -80 -79 -107 -79 -23 0 -14 25 20 57 57 54 87 62 87 22z m141 -393 c33
-50 59 -94 59 -98 0 -10 -71 1 -87 13 -10 9 -53 151 -53 178 0 24 23 -2 81
-93z m-783 -13 c23 -39 42 -77 42 -83 0 -13 -67 -7 -81 7 -10 10 -29 111 -29
158 0 28 1 28 13 10 8 -11 33 -52 55 -92z"/>
<path d="M3823 1663 c-17 -6 -16 -55 1 -78 14 -19 15 -19 50 -2 45 21 54 42
31 67 -17 19 -54 25 -82 13z"/>
<path d="M3645 1597 c-162 -88 -249 -169 -285 -265 -47 -122 6 -255 119 -302
70 -29 194 49 256 161 28 51 30 62 33 179 3 136 -18 252 -48 257 -8 2 -42 -12
-75 -30z m-10 -158 c8 -34 -2 -119 -13 -119 -8 0 -62 86 -62 98 0 7 52 51 62
52 3 0 9 -14 13 -31z m-98 -151 c29 -27 30 -64 2 -79 -18 -9 -26 -7 -50 17
-19 18 -29 38 -29 56 0 24 4 28 27 28 15 0 37 -10 50 -22z"/>
<path d="M3885 1543 c-35 -35 -47 -106 -19 -117 75 -29 133 41 94 113 -13 25
-52 27 -75 4z"/>
<path d="M3925 1365 c-37 -13 -85 -55 -85 -75 0 -37 104 -57 130 -25 15 18 19
91 5 104 -6 6 -25 4 -50 -4z"/>
<path d="M3815 1164 c-30 -32 -32 -60 -6 -74 31 -16 70 -12 101 10 61 43 46
90 -27 90 -35 0 -49 -6 -68 -26z"/>
<path d="M3709 1036 c-65 -34 -89 -50 -89 -58 0 -4 17 -12 39 -18 42 -11 133
1 158 21 22 19 15 48 -17 64 -38 19 -39 19 -91 -9z"/>
<path d="M7850 1790 c-85 -28 -174 -54 -197 -57 -24 -3 -43 -9 -43 -13 0 -5
29 -25 65 -45 42 -23 93 -66 143 -118 147 -156 197 -200 250 -225 49 -22 63
-24 175 -20 120 3 123 4 195 43 40 22 85 52 99 67 l27 28 -21 22 c-11 13 -44
59 -73 103 -102 154 -138 193 -209 228 -58 28 -76 32 -161 34 -90 3 -103 0
-250 -47z"/>
<path d="M6211 1441 c-13 -23 -5 -48 19 -61 27 -14 52 10 48 45 -2 24 -8 31
-30 33 -18 2 -30 -3 -37 -17z"/>
<path d="M7649 1371 c-40 -31 -54 -74 -39 -111 13 -31 54 -60 85 -60 30 0 73
30 82 57 29 84 -63 165 -128 114z"/>
<path d="M6367 1322 c-22 -24 -21 -45 1 -65 23 -21 58 -22 66 -1 24 63 -26
112 -67 66z"/>
<path d="M2346 1175 c-10 -28 12 -57 42 -53 23 2 27 8 27 33 0 26 -4 30 -31
33 -22 2 -33 -2 -38 -13z"/>
<path d="M8125 1016 c-97 -43 -55 -206 53 -206 40 0 97 50 108 94 8 33 -12 83
-40 101 -33 21 -88 26 -121 11z"/>
<path d="M7667 884 c-37 -11 -69 -35 -133 -96 l-85 -82 58 -21 c32 -12 87 -40
122 -63 98 -64 155 -75 249 -47 74 22 80 38 48 140 -30 95 -59 136 -113 158
-62 24 -95 27 -146 11z"/>
<path d="M8155 620 c-12 -20 4 -60 24 -60 28 0 47 28 34 48 -12 20 -48 28 -58
12z"/>
<path d="M7358 533 c-9 -10 -32 -48 -53 -85 -40 -74 -87 -121 -163 -164 -29
-16 -52 -32 -52 -35 0 -15 125 -34 221 -34 99 0 108 2 146 28 56 39 83 91 83
163 0 68 -25 119 -66 134 -41 16 -99 12 -116 -7z"/>
<path d="M7750 386 c-16 -21 -9 -60 13 -64 41 -8 64 48 28 68 -25 13 -26 13
-41 -4z"/>
</g>
</svg>
